<svg xmlns="http://www.w3.org/2000/svg" xmlns:d="http://www.mathworks.com/blockgraphics" xmlns:xlink="http://www.w3.org/1999/xlink" version="1.1" id="svg_5" width="10800" height="7200" viewBox="0 0 10800 7200" d:options="Foreground:PortStyled;Background:Transparent;StrokeScaling:PortStyled;StrokeScalingOnResize:NonScaling;LineExtension:On;Rotate:On;Resize:FitToBlock;Frame:Off;Clipping:None;PreAdjustStrokeWidth:Normalized;Port:Auto Majority;">
	<g id="layer_5" title="layer_0" ie-ports="left:foundation-two_phase_fluid-two_phase_fluid,top:,right:foundation-two_phase_fluid-two_phase_fluid,bottom:">
		<g id="group_24">
			<title>
				Layer 1			</title>
			<g id="Cylinder">
				<path id="part_1" style="stroke: rgb(0, 0, 0);stroke-width: 8px;fill:none" d:options="ClosedShapeFill:On;Port:L0;" d=" M 1826.76,4585.85 L 8768.22,4585.85 C 9147.01,4585.85 9400,4081.56 9400,3577.27 C 9400,3072.98 9147.01,2568.69 8768.22,2568.69 L 1826.76,2568.69"/>
				<ellipse id="part_2" style="stroke: rgb(0, 0, 0);stroke-width: 8px;fill:none" d:options="ClosedShapeFill:On;Port:L0;" cx="1826.12" cy="3577.27" rx="601.12" ry="1008.58"/>
			</g>
			<ellipse id="svg_4" fill-opacity="0" stroke="#000000" stroke-width="8px" d:options="ClosedShapeFill:On;Port:L0;" cx="2830" cy="3037.27" rx="180" ry="180"/>
			<ellipse id="svg_6" fill-opacity="0" stroke="#000000" stroke-width="8px" d:options="ClosedShapeFill:On;Port:L0;" cx="4630" cy="3847.27" rx="302" ry="302"/>
			<ellipse id="svg_7" fill-opacity="0" stroke="#000000" stroke-width="8px" d:options="ClosedShapeFill:On;Port:L0;" cx="6925" cy="3352.27" rx="387" ry="387"/>
			<ellipse id="svg_8" fill-opacity="0" stroke="#000000" stroke-width="8px" d:options="ClosedShapeFill:On;Port:L0;" cx="8500" cy="3802.27" rx="127" ry="127"/>
			<ellipse id="svg_9" fill-opacity="0" stroke="#000000" stroke-width="8px" d:options="ClosedShapeFill:On;Port:L0;" cx="5845" cy="4117.27" rx="142" ry="142"/>
			<ellipse id="svg_10" fill-opacity="0" stroke="#000000" stroke-width="8px" d:options="ClosedShapeFill:On;Port:L0;" cx="3280" cy="3892.27" rx="101" ry="101"/>
			<ellipse id="svg_11" fill-opacity="0" stroke="#000000" stroke-width="8px" d:options="ClosedShapeFill:On;Port:L0;" cx="3955" cy="3127.27" rx="64" ry="64"/>
			<ellipse id="svg_12" fill-opacity="0" stroke="#000000" stroke-width="8px" d:options="ClosedShapeFill:On;Port:L0;" cx="5440" cy="3127.27" rx="101" ry="101"/>
			<ellipse id="svg_13" fill-opacity="0" stroke="#000000" stroke-width="8px" d:options="ClosedShapeFill:On;Port:L0;" cx="8005" cy="3262.27" rx="101" ry="101"/>
			<ellipse id="svg_14" fill-opacity="0" stroke="#000000" stroke-width="8px" d:options="ClosedShapeFill:On;Port:L0;" cx="7600" cy="4117.27" rx="127" ry="127"/>
			<ellipse id="svg_15" fill-opacity="0" stroke="#000000" stroke-width="8px" d:options="ClosedShapeFill:On;Port:L0;" cx="2695" cy="4072.27" rx="64" ry="64"/>
			<path id="svg_18" fill-opacity="0" stroke="#000000" stroke-width="8px" d:options="Port:R0;" d=" M 9400,3577.27 L 10750,3577.27"/>
			<path id="svg_19" fill-opacity="0" stroke="#000000" stroke-width="8px" d:options="Port:L0;" d=" M 1750,3577.27 L 850,3577.27 L 399.99,3575.27 L -50.01,3575.27"/>
			<path id="svg_22" fill-opacity="0" stroke="#000000" stroke-width="8px" d:options="Port:L0;" d=" M 1826.76,4585.85 L 4000,4585.85"/>
			<path id="svg_23" fill-opacity="0" stroke="#000000" stroke-width="8px" d:options="Port:L0;" d=" M 6700,4585.85 L 8768.22,4585.85"/>
		</g>
	</g>
</svg>
